# xmcd CD database file generated by OrangeCD 4.3
#
# Track frame offsets:
#	150
#	23763
#	54367
#	72497
#	104004
#	135078
#	144832
#	168620
#	187904
#	207125
#	221334
#	244973
#	263826
#	283466
#
# Disc length: 4161 seconds
#
# Revision: 1
# Processed by: cddbd v1.4PL0 Copyright (c) Steve Scherf et al.
# Submitted via: OrangeCD 4.3
#
DISCID=d0103f0e
DTITLE=Hot Tuna - Splashdown Two
DYEAR=1900
DGENRE=Blues
TTITLE0=Oh Lord Search My Heart
TTITLE1=Death Don't Have No Mercy
TTITLE2=I Am the Light of This World
TTITLE3=Man's Fate
TTITLE4=Whining Boy Blues
TTITLE5=Embryonic Journey
TTITLE6=99 Year Blues
TTITLE7=Police Dog (Splashdown) Blues
TTITLE8=Sally Where'd You Get Your Liquor From
TTITLE9=Keep Your Lamps Trimmed and Burning
TTITLE10=I Know You Rider
TTITLE11=Babe I Want You To Know
TTITLE12=Keep On Truckin'
TTITLE13=Candyman
EXTD=
EXTT0=01
EXTT1=02
EXTT2=03
EXTT3=04
EXTT4=05
EXTT5=06
EXTT6=07
EXTT7=08
EXTT8=09
EXTT9=10
EXTT10=11
EXTT11=12
EXTT12=13
EXTT13=14
PLAYORDER=
